<svg xmlns="http://www.w3.org/2000/svg" viewBox="0 0 640 512" fill="#f4a261">
  <path d="M96 0c8.8 0 16 7.2 16 16V32h-8c-30.9 0-56 25.1-56 56 0 24.9 16.1 45.9 38.4 53.2l-29 145C47.7 285.1 32 305.7 32 330.7V352c0 29.5 24 53.5 53.5 53.5h28c11.4 0 22.5-4.2 31.1-11.7l32.6-28.4 39.8 93.8c4.8 11.3 15.8 18.8 28.1 18.8H288v32c0 8.8 7.2 16 16 16s16-7.2 16-16V477h32v35c0 8.8 7.2 16 16 16s16-7.2 16-16V477h36.9c12.3 0 23.3-7.5 28.1-18.8l39.8-93.8 32.6 28.4c8.6 7.5 19.7 11.7 31.1 11.7h28c29.5 0 53.5-24 53.5-53.5V330.7c0-25-15.7-45.6-38.4-54.5l-29-145C591.9 133.9 608 112.9 608 88c0-30.9-25.1-56-56-56h-8V16c0-8.8-7.2-16-16-16s-16 7.2-16 16V32h-8c-15.2 0-29.2 5.9-39.7 15.5C448.6 21.7 416.3 0 384 0H96zm62 96c8.8 0 16 7.2 16 16v40.7l-19.3 96.5c-1.2 6-6.5 10.4-12.6 10.4h-7c-6.1 0-11.3-4.4-12.6-10.4L102 152.7V112c0-8.8 7.2-16 16-16h40zM481 152.7V112c0-8.8 7.2-16 16-16h40c8.8 0 16 7.2 16 16v40.7l-19.3 96.5c-1.2 6-6.5 10.4-12.6 10.4h-7c-6.1 0-11.3-4.4-12.6-10.4L481 152.7zM320 80c8.8 0 16 7.2 16 16v40c0 17.7-14.3 32-32 32h-16v32h16c17.7 0 32 14.3 32 32v40c0 8.8-7.2 16-16 16s-16-7.2-16-16v-40c0-17.7-14.3-32-32-32h-16v-32h16c17.7 0 32-14.3 32-32v-40c0-8.8 7.2-16 16-16z"/>
</svg>
